<svg xmlns="http://www.w3.org/2000/svg" xmlns:xlink="http://www.w3.org/1999/xlink" viewBox="0 0 160.03 36.97"><defs><style>.cls-1{fill:none;}.cls-2{clip-path:url(#clip-path);}.cls-3{fill:url(#Gradiente_sem_nome);}.cls-4{clip-path:url(#clip-path-2);}.cls-5{fill:url(#Gradiente_sem_nome_2);}.cls-6{fill:#fff;}.cls-7{fill:#e2cfea;}.cls-8{fill:#a06cd5;}.cls-9{fill:#aa7bd9;}</style><clipPath id="clip-path"><path class="cls-1" d="M33.9,34.91H17.66A4.11,4.11,0,0,1,14,33L7,20.45a3.42,3.42,0,0,1-.42-1.95v0a3.92,3.92,0,0,1,.76-1.95L16.6,4a5,5,0,0,1,4-2H36.84a5,5,0,0,0-4,2l-9.23,12.5a3.84,3.84,0,0,0-.77,1.95v0a3.42,3.42,0,0,0,.41,1.95l7,12.5a4.11,4.11,0,0,0,3.65,2"/></clipPath><linearGradient id="Gradiente_sem_nome" x1="20.99" y1="10.71" x2="22.22" y2="24.41" gradientUnits="userSpaceOnUse"><stop offset="0" stop-color="#6247aa"/><stop offset="1" stop-color="#a06cd5"/></linearGradient><clipPath id="clip-path-2"><path class="cls-1" d="M17.65,34.91H33.89a5.05,5.05,0,0,0,4-2l9.23-12.5a3.84,3.84,0,0,0,.77-1.95v0a3.34,3.34,0,0,0-.42-1.95L40.49,4a4.11,4.11,0,0,0-3.65-2H20.6a4.11,4.11,0,0,1,3.65,2l7,12.5a3.34,3.34,0,0,1,.42,1.95v0a3.93,3.93,0,0,1-.77,1.95L21.65,33a5,5,0,0,1-4,2"/></clipPath><linearGradient id="Gradiente_sem_nome_2" x1="32.81" y1="11.71" x2="32.81" y2="34.91" gradientUnits="userSpaceOnUse"><stop offset="0" stop-color="#a06cd5"/><stop offset="1" stop-color="#6247aa"/></linearGradient></defs><g id="Camada_2" data-name="Camada 2"><g id="Camada_1-2" data-name="Camada 1"><g class="cls-2"><rect class="cls-3" x="6.54" y="2.06" width="30.31" height="32.85"/></g><g class="cls-4"><rect class="cls-5" x="17.65" y="2.06" width="30.31" height="32.85"/></g><path class="cls-6" d="M67,19.12a7.74,7.74,0,0,0,2.36-.32,3.62,3.62,0,0,0,1.59-1,5.13,5.13,0,0,0,1-1.75,13.48,13.48,0,0,0,.59-2.46,14.36,14.36,0,0,0,.19-3.21,3.14,3.14,0,0,0-.6-1.77,2.27,2.27,0,0,0-1.43-.73,15.16,15.16,0,0,0-2.35-.15H64.55l-.18.62c-.05.22-.11.47-.17.76L62.78,19.12H67m-.82,4.23H53.72L56,6.78a4.87,4.87,0,0,1,1-2.5,3.39,3.39,0,0,1,2.59-.78H71.15a22.74,22.74,0,0,1,5.18.5,6.75,6.75,0,0,1,3.21,1.61A5.45,5.45,0,0,1,81,8.68a16.57,16.57,0,0,1-.11,4.92,16.26,16.26,0,0,1-1.4,5.07,7,7,0,0,1-2.65,2.93A11.28,11.28,0,0,1,72.55,23,46.14,46.14,0,0,1,66.14,23.35Z"/><path class="cls-6" d="M92.12,6.13l-1.55,11A2.21,2.21,0,0,0,90.91,19a2.65,2.65,0,0,0,1.86.52,3.06,3.06,0,0,0,2-.56,2.87,2.87,0,0,0,.8-1.73l1.55-11h.67c.41,0,.9,0,1.46,0l1.54,0h.82a13.2,13.2,0,0,1,1.87.11,1.14,1.14,0,0,1,1,.6,3.57,3.57,0,0,1,.07,1.79l-1.08,7.77a12.79,12.79,0,0,1-.93,3.45A5.2,5.2,0,0,1,100.66,22a8.84,8.84,0,0,1-3.34,1.23,29.73,29.73,0,0,1-5.29.39,26.3,26.3,0,0,1-6.12-.54,3.72,3.72,0,0,1-2.74-2A8.22,8.22,0,0,1,82.89,17l1.16-8.37a3.06,3.06,0,0,1,.78-2,3.59,3.59,0,0,1,2.28-.52l2.51,0c.8,0,1.64,0,2.5,0"/><path class="cls-6" d="M108.43,23.35c-1.15,0-1.88-.17-2.18-.52a3.13,3.13,0,0,1-.24-2.24l1.9-13.42a14.89,14.89,0,0,1,2-.46c.82-.12,1.69-.24,2.61-.34s1.84-.17,2.77-.22,1.72-.06,2.41-.06a16,16,0,0,1,3.09.26,4.32,4.32,0,0,1,2.11,1,4.72,4.72,0,0,1,1.23,2.42l-1,0a5,5,0,0,1,1.42-2,6,6,0,0,1,2-1.1,10.37,10.37,0,0,1,2.08-.45,16.7,16.7,0,0,1,1.72-.11,19.19,19.19,0,0,1,5,.5,3.39,3.39,0,0,1,2.39,1.87,7.72,7.72,0,0,1,.26,4l-1.17,8.42a5,5,0,0,1-.49,1.64,1.47,1.47,0,0,1-.93.71,7.29,7.29,0,0,1-1.68.15h-5q.38-2.8.77-5.59c.26-1.85.52-3.72.78-5.59q.21-1.63-.24-2.07a2.11,2.11,0,0,0-1.49-.43,2.54,2.54,0,0,0-.88.15,1.77,1.77,0,0,0-.67.41,1,1,0,0,0-.3.61L125,23.35h-7.77L118.74,12c.15-.87.07-1.45-.23-1.75A2.15,2.15,0,0,0,117,9.76a5,5,0,0,0-1,.08,1.38,1.38,0,0,0-.61.28.84.84,0,0,0-.26.5l-1.77,12.73Z"/><path class="cls-6" d="M147.27,23.35h-5.7a1.75,1.75,0,0,1-1.49-.56,3.31,3.31,0,0,1-.19-2.2L141.79,7a32,32,0,0,1,4-.67A45,45,0,0,1,151.37,6a28.13,28.13,0,0,1,5.15.37,5.44,5.44,0,0,1,2.63,1.1,2.74,2.74,0,0,1,.87,2,15.93,15.93,0,0,1-.2,3.05h-7.33l0-.61a3,3,0,0,0,0-1.57,1,1,0,0,0-.61-.61,3.26,3.26,0,0,0-.86-.11,5.83,5.83,0,0,0-1.21.13,1,1,0,0,0-.73.48Z"/><path class="cls-7" d="M56.57,34.15a4.44,4.44,0,0,1-2-.4,3.08,3.08,0,0,1-1.27-1.15,3.23,3.23,0,0,1-.44-1.7,4.79,4.79,0,0,1,.59-2.35,4.32,4.32,0,0,1,1.66-1.68,4.88,4.88,0,0,1,2.48-.61,4.3,4.3,0,0,1,1.7.31,2.64,2.64,0,0,1,1.14.89l-.8.68a2.5,2.5,0,0,0-2.11-.9,3.6,3.6,0,0,0-1.88.48A3.32,3.32,0,0,0,54.43,29a3.8,3.8,0,0,0-.44,1.8,2.2,2.2,0,0,0,.69,1.71,2.83,2.83,0,0,0,2,.63A3.16,3.16,0,0,0,59,32.26l.64.72a3.3,3.3,0,0,1-1.32.88,5,5,0,0,1-1.74.29"/><path class="cls-7" d="M62.64,29.09a2.19,2.19,0,0,1,1-.7A3.67,3.67,0,0,1,65,28.16l-.2,1h-.28a2.09,2.09,0,0,0-2.2,2l-.59,2.93H60.63l1.16-5.85h1Z"/><path class="cls-7" d="M67.07,27.1a.67.67,0,0,1-.47-.19.65.65,0,0,1-.19-.45.69.69,0,0,1,.22-.53.73.73,0,0,1,.54-.21.66.66,0,0,1,.48.18.57.57,0,0,1,.2.43.73.73,0,0,1-.22.56.76.76,0,0,1-.56.21m-.83,1.12H67.3l-1.16,5.85H65.08Z"/><path class="cls-7" d="M71,33.21a2.23,2.23,0,0,0,1.17-.32A2.18,2.18,0,0,0,73,32a2.77,2.77,0,0,0,.29-1.28,1.6,1.6,0,0,0-.45-1.21,1.78,1.78,0,0,0-1.29-.43,2.18,2.18,0,0,0-1.17.32,2.22,2.22,0,0,0-.82.87,2.69,2.69,0,0,0-.3,1.28,1.6,1.6,0,0,0,.46,1.21,1.82,1.82,0,0,0,1.29.44m3.86-5-1.16,5.85h-1l.15-.72a2.93,2.93,0,0,1-.92.58,3.25,3.25,0,0,1-1.14.2,2.91,2.91,0,0,1-1.34-.3,2.2,2.2,0,0,1-.91-.88,2.54,2.54,0,0,1-.34-1.34,3.69,3.69,0,0,1,.43-1.78,3.17,3.17,0,0,1,1.19-1.22,3.24,3.24,0,0,1,1.69-.45,2.86,2.86,0,0,1,1.29.27,1.93,1.93,0,0,1,.82.78l.2-1Z"/><path class="cls-7" d="M77.24,32.2a1.71,1.71,0,0,0,0,.31.74.74,0,0,0,.19.54.8.8,0,0,0,.58.19,1.35,1.35,0,0,0,.84-.28l.22.81a2.35,2.35,0,0,1-1.36.36,1.57,1.57,0,0,1-1.11-.39,1.37,1.37,0,0,1-.43-1.08,3.13,3.13,0,0,1,0-.44l.63-3.13h-1l.17-.87h1l.25-1.28H78.3l-.25,1.28h1.68l-.18.87H77.87Z"/><path class="cls-7" d="M82.24,27.1a.65.65,0,0,1-.47-.19.61.61,0,0,1-.19-.45.72.72,0,0,1,.21-.53.77.77,0,0,1,.55-.21.68.68,0,0,1,.48.18.56.56,0,0,1,.19.43.76.76,0,0,1-.21.56.78.78,0,0,1-.56.21m-.84,1.12h1.06L81.3,34.07H80.24Z"/><polygon class="cls-7" points="89.65 28.22 85.94 34.07 84.85 34.07 83.45 28.22 84.51 28.22 85.6 32.91 88.58 28.22 89.65 28.22"/><path class="cls-7" d="M92.12,33.21a2.24,2.24,0,0,0,1.18-.32,2.09,2.09,0,0,0,.81-.88,2.66,2.66,0,0,0,.3-1.28A1.6,1.6,0,0,0,94,29.52a1.78,1.78,0,0,0-1.29-.43,2.23,2.23,0,0,0-1.17.32,2.27,2.27,0,0,0-.81.87,2.69,2.69,0,0,0-.3,1.28,1.57,1.57,0,0,0,.46,1.21,1.77,1.77,0,0,0,1.28.44m-.06.92a3.13,3.13,0,0,1-1.45-.31,2.36,2.36,0,0,1-1-.89,2.5,2.5,0,0,1-.34-1.32,3.57,3.57,0,0,1,.44-1.77A3.16,3.16,0,0,1,91,28.61a3.47,3.47,0,0,1,1.76-.45,3.25,3.25,0,0,1,1.44.31,2.28,2.28,0,0,1,1,.88,2.6,2.6,0,0,1,.34,1.33A3.53,3.53,0,0,1,95,32.45a3.21,3.21,0,0,1-1.21,1.24A3.56,3.56,0,0,1,92.06,34.13Z"/><path class="cls-7" d="M98.17,34.13a4.86,4.86,0,0,1-1.39-.19,2.69,2.69,0,0,1-1-.48l.48-.84a2.59,2.59,0,0,0,.88.44,4.37,4.37,0,0,0,1.15.16A2.31,2.31,0,0,0,99.41,33a.7.7,0,0,0,.39-.63.5.5,0,0,0-.32-.48,5.91,5.91,0,0,0-1-.29,6.22,6.22,0,0,1-1-.27,1.57,1.57,0,0,1-.67-.44,1.18,1.18,0,0,1-.27-.82,1.59,1.59,0,0,1,.32-1,2,2,0,0,1,.93-.66,3.71,3.71,0,0,1,1.39-.24,4.35,4.35,0,0,1,1.14.15,2.68,2.68,0,0,1,.9.38l-.42.84a2.36,2.36,0,0,0-.79-.34,3.59,3.59,0,0,0-.93-.12,2.11,2.11,0,0,0-1.1.24.71.71,0,0,0-.39.63.51.51,0,0,0,.32.5,4.8,4.8,0,0,0,1,.29,9.44,9.44,0,0,1,1,.27,1.55,1.55,0,0,1,.66.43,1.16,1.16,0,0,1,.27.8,1.6,1.6,0,0,1-.74,1.4,3.4,3.4,0,0,1-1.94.5"/><path class="cls-7" d="M108.45,33.11a3.89,3.89,0,0,0,1.94-.46,3.12,3.12,0,0,0,1.27-1.25,3.64,3.64,0,0,0,.45-1.82,2.09,2.09,0,0,0-.69-1.67,2.93,2.93,0,0,0-2-.61h-2l-1.16,5.81Zm-2-6.76h3a4.68,4.68,0,0,1,2,.39,2.92,2.92,0,0,1,1.27,1.1,3.12,3.12,0,0,1,.43,1.67,4.65,4.65,0,0,1-.6,2.38,4.1,4.1,0,0,1-1.69,1.61,5.32,5.32,0,0,1-2.52.57H105Z"/><path class="cls-7" d="M115.92,27.1a.65.65,0,0,1-.47-.19.61.61,0,0,1-.19-.45.69.69,0,0,1,.22-.53.73.73,0,0,1,.54-.21.68.68,0,0,1,.48.18.57.57,0,0,1,.2.43.74.74,0,0,1-.78.77m-.83,1.12h1L115,34.07h-1.06Z"/><path class="cls-7" d="M119.84,32.9a2.3,2.3,0,0,0,1.18-.3,2,2,0,0,0,.82-.81,2.36,2.36,0,0,0,.29-1.19,1.42,1.42,0,0,0-.45-1.11,2,2,0,0,0-1.29-.4,2.47,2.47,0,0,0-1.19.29,2.13,2.13,0,0,0-.81.82,2.31,2.31,0,0,0-.29,1.17,1.39,1.39,0,0,0,.46,1.12,1.87,1.87,0,0,0,1.28.41m3.91-4.68-1,5.05a3.81,3.81,0,0,1-1.16,2.28,3.52,3.52,0,0,1-2.34.72,5.15,5.15,0,0,1-1.51-.21,3.33,3.33,0,0,1-1.15-.62l.58-.81a2.69,2.69,0,0,0,.92.51,3.79,3.79,0,0,0,1.24.19,2.37,2.37,0,0,0,1.57-.46,2.44,2.44,0,0,0,.76-1.43l.09-.42a3,3,0,0,1-2.12.8,3.06,3.06,0,0,1-1.36-.28,2.18,2.18,0,0,1-.92-.83,2.37,2.37,0,0,1-.32-1.27,3.33,3.33,0,0,1,.42-1.66,3.09,3.09,0,0,1,1.19-1.19,3.48,3.48,0,0,1,1.72-.43,3,3,0,0,1,1.33.29,1.74,1.74,0,0,1,.85.84l.21-1.07Z"/><path class="cls-7" d="M126.61,27.1a.65.65,0,0,1-.47-.19.61.61,0,0,1-.19-.45.72.72,0,0,1,.21-.53.77.77,0,0,1,.55-.21.68.68,0,0,1,.48.18.56.56,0,0,1,.19.43.76.76,0,0,1-.21.56.78.78,0,0,1-.56.21m-.84,1.12h1.06l-1.16,5.85h-1.06Z"/><path class="cls-7" d="M129.26,32.2a1.71,1.71,0,0,0,0,.31.7.7,0,0,0,.19.54.78.78,0,0,0,.58.19,1.35,1.35,0,0,0,.84-.28l.22.81a2.39,2.39,0,0,1-1.36.36,1.59,1.59,0,0,1-1.12-.39,1.4,1.4,0,0,1-.42-1.08,2.12,2.12,0,0,1,0-.44l.63-3.13h-1l.16-.87h1l.26-1.28h1.06l-.26,1.28h1.68l-.18.87h-1.67Z"/><path class="cls-7" d="M134.86,33.21a2.27,2.27,0,0,0,1.18-.32,2.16,2.16,0,0,0,.81-.88,2.66,2.66,0,0,0,.29-1.28,1.6,1.6,0,0,0-.45-1.21,1.78,1.78,0,0,0-1.29-.43,2.23,2.23,0,0,0-1.17.32,2.19,2.19,0,0,0-.81.87,2.69,2.69,0,0,0-.3,1.28,1.57,1.57,0,0,0,.46,1.21,1.77,1.77,0,0,0,1.28.44m3.86-5-1.16,5.85h-1l.14-.72a2.82,2.82,0,0,1-.92.58,3.25,3.25,0,0,1-1.14.2,2.91,2.91,0,0,1-1.34-.3,2.2,2.2,0,0,1-.91-.88,2.64,2.64,0,0,1-.33-1.34,3.58,3.58,0,0,1,.43-1.78,3.15,3.15,0,0,1,1.18-1.22,3.27,3.27,0,0,1,1.7-.45,2.78,2.78,0,0,1,1.28.27,1.88,1.88,0,0,1,.82.78l.2-1Z"/><path class="cls-7" d="M141.58,27.1a.69.69,0,0,1-.48-.19.64.64,0,0,1-.18-.45.72.72,0,0,1,.21-.53.75.75,0,0,1,.55-.21.68.68,0,0,1,.48.18.56.56,0,0,1,.19.43.73.73,0,0,1-.22.56.74.74,0,0,1-.55.21m-.84,1.12h1.06l-1.16,5.85h-1.06Z"/><path class="cls-7" d="M144.5,34.13a4.79,4.79,0,0,1-1.38-.19,2.69,2.69,0,0,1-1-.48l.47-.84a2.64,2.64,0,0,0,.89.44,4.24,4.24,0,0,0,1.14.16,2.31,2.31,0,0,0,1.14-.23.7.7,0,0,0,.39-.63.5.5,0,0,0-.31-.48,6.1,6.1,0,0,0-1-.29,6.22,6.22,0,0,1-1-.27,1.48,1.48,0,0,1-.66-.44,1.13,1.13,0,0,1-.28-.82,1.6,1.6,0,0,1,.33-1,1.94,1.94,0,0,1,.92-.66,3.77,3.77,0,0,1,1.4-.24,4.22,4.22,0,0,1,1.13.15,2.83,2.83,0,0,1,.91.38l-.42.84a2.42,2.42,0,0,0-.8-.34,3.57,3.57,0,0,0-.92-.12,2.06,2.06,0,0,0-1.1.24.71.71,0,0,0-.39.63.51.51,0,0,0,.32.5,4.49,4.49,0,0,0,1,.29,8.24,8.24,0,0,1,1,.27,1.55,1.55,0,0,1,.66.43,1.16,1.16,0,0,1,.27.8,1.59,1.59,0,0,1-.73,1.4,3.44,3.44,0,0,1-1.95.5"/><path class="cls-7" d="M11.62,34.45a.46.46,0,0,0,0,.92h1.84a.46.46,0,0,0,0-.92Zm-4.6,0a.46.46,0,0,0,0,.92H8.86a.46.46,0,0,0,0-.92Zm-3.37,0a.46.46,0,0,0,0,.92h.62a.46.46,0,0,0,0-.92Zm-1.13-3a.46.46,0,0,0-.92,0v1.83a.46.46,0,0,0,.92,0Zm0-4.6a.46.46,0,0,0-.92,0v1.84a.46.46,0,0,0,.92,0Zm0-4.6a.46.46,0,0,0-.92,0v1.84a.46.46,0,0,0,.92,0Zm0-4.6a.46.46,0,0,0-.92,0v1.84a.46.46,0,0,0,.92,0Zm0-4.6a.46.46,0,0,0-.92,0v1.84a.46.46,0,0,0,.92,0Zm0-4.59a.46.46,0,0,0-.92,0v1.84a.46.46,0,0,0,.92,0Zm0-4.6a.46.46,0,0,0-.92,0V5.73a.46.46,0,0,0,.92,0Zm3-1.37a.46.46,0,0,0,0-.92H3.65a.46.46,0,0,0,0,.92Zm4.6,0a.46.46,0,0,0,0-.92H8.25a.46.46,0,0,0,0,.92Zm4.6,0a.46.46,0,0,0,0-.92H12.85a.46.46,0,0,0,0,.92Zm3.56,0a.46.46,0,0,0,0-.92h-.8a.46.46,0,0,0,0,.92Z"/><path class="cls-7" d="M3.65,4.11H0V0H4.12V4.11ZM.92,3.19H3.19V.92H.92Z"/><path class="cls-7" d="M3.65,37H0V32.85H4.12V37ZM.92,36.05H3.19V33.77H.92Z"/><path class="cls-8" d="M33.61,18.25a.72.72,0,0,1,0-1.44H46.76a.72.72,0,1,1,0,1.44Z"/><path class="cls-9" d="M25.26,3.57a.49.49,0,0,1-.48-.48.48.48,0,0,1,.48-.48H37.8a.48.48,0,0,1,.48.48.49.49,0,0,1-.48.48Z"/></g></g></svg>